<?xml version="1.0" encoding="UTF-8"?>
<svg width="12px" height="12px" viewBox="0 0 12 12" version="1.1" xmlns="http://www.w3.org/2000/svg" xmlns:xlink="http://www.w3.org/1999/xlink">
    <!-- Generator: Sketch 50.2 (55047) - http://www.bohemiancoding.com/sketch -->
    <title>Shape</title>
    <desc>Created with Sketch.</desc>
    <defs></defs>
    <g id="Search-Results-update" stroke="none" stroke-width="1" fill="none" fill-rule="evenodd">
        <g id="WoS---Search-V2" transform="translate(-1162.000000, -437.000000)" fill="#4B749B" fill-rule="nonzero">
            <g id="Button-/-Standard-/-Icon-with-text-Copy-2" transform="translate(1151.000000, 433.000000)">
                <path d="M23,16 L16.3333333,16 L16.3333333,12 L19.3066667,12 L20.1066667,12 L23,12 L23,16 Z M19.2666667,11.2 L19.2666667,4 L16.3333333,4 L16.3333333,11.2 L19.2666667,11.2 Z M20.2,11.2 L23,11.2 L23,4 L20.2,4 L20.2,11.2 Z M11,8.4 L11,16 L15.5333333,16 L15.5333333,8.4 L11,8.4 Z M11,7.6 L15.5333333,7.6 L15.5333333,4 L11,4 L11,7.6 Z" id="Shape"></path>
            </g>
        </g>
    </g>
</svg>